<?xml version="1.0" encoding="UTF-8" standalone="no"?>
<svg
   xmlns:dc="http://purl.org/dc/elements/1.1/"
   xmlns:cc="http://creativecommons.org/ns#"
   xmlns:rdf="http://www.w3.org/1999/02/22-rdf-syntax-ns#"
   xmlns:svg="http://www.w3.org/2000/svg"
   xmlns="http://www.w3.org/2000/svg"
   xmlns:sodipodi="http://sodipodi.sourceforge.net/DTD/sodipodi-0.dtd"
   xmlns:inkscape="http://www.inkscape.org/namespaces/inkscape"
   viewBox="0 0 800 800"
   x="0px"
   y="0px"
   version="1.1"
   id="svg16"
   sodipodi:docname="eye.svg"
   width="800"
   height="800"
   inkscape:version="0.92.3 (2405546, 2018-03-11)">
  <metadata
     id="metadata22">
    <rdf:RDF>
      <cc:Work
         rdf:about="">
        <dc:format>image/svg+xml</dc:format>
        <dc:type
           rdf:resource="http://purl.org/dc/dcmitype/StillImage" />
        <dc:title></dc:title>
      </cc:Work>
    </rdf:RDF>
  </metadata>
  <defs
     id="defs20" />
  <sodipodi:namedview
     pagecolor="#ffffff"
     bordercolor="#666666"
     borderopacity="1"
     objecttolerance="10"
     gridtolerance="10"
     guidetolerance="10"
     inkscape:pageopacity="0"
     inkscape:pageshadow="2"
     inkscape:window-width="1920"
     inkscape:window-height="1025"
     id="namedview18"
     showgrid="false"
     inkscape:zoom="0.7375"
     inkscape:cx="157.11702"
     inkscape:cy="453.81372"
     inkscape:window-x="2560"
     inkscape:window-y="27"
     inkscape:window-maximized="1"
     inkscape:current-layer="svg16" />
  <path
     d="m 590.46102,499.62712 c -8.6,-24.4 -20.3,-44.9 -33,-57.5 -2.6,-2.6 -6,-4 -9.7,-4 -3.7,0 -7.1,1.4 -9.7,4 -5.3,5.3 -5.3,14 0,19.4 9.9,9.9 19.6,27.4 26.8,48.1 7.3,21.2 11.4,43.6 11.4,63.1 0,3 -0.1,7.6 -0.2,10.1 -0.2,3.7 1.1,7.1 3.6,9.8 2.5,2.7 5.8,4.3 9.5,4.4 h 0.6 c 7.3,0 13.3,-5.7 13.7,-13.1 0.1,-3.1 0.2,-8.1 0.2,-11.3 0,-22.8 -4.7,-48.8 -13.2,-73 z m -307.8,-71.4 c 2.9,0 5.6,-0.9 8,-2.6 29.9,-21.4 66.2,-32.7 105,-32.7 40.8,0 80.1,14.8 113.7,42.8 2.5,2 5.6,3.2 8.8,3.2 4.1,0 7.9,-1.8 10.5,-4.9 4.8,-5.8 4,-14.4 -1.7,-19.3 -38.7,-32.1 -84,-49.1 -131.3,-49.1 -44.6,0 -86.4,13.1 -121,37.8 -3,2.1 -4.9,5.3 -5.5,8.9 -0.6,3.6 0.2,7.2 2.4,10.2 2.5,3.6 6.7,5.7 11.1,5.7 z m -67.6,144.4 c 0,-43.7 15.8,-85.8 44.5,-118.7 2.4,-2.8 3.6,-6.3 3.3,-9.9 -0.2,-3.6 -1.9,-7 -4.7,-9.4 -2.5,-2.2 -5.7,-3.4 -9,-3.4 -4,0 -7.7,1.7 -10.3,4.7 -33,37.9 -51.2,86.4 -51.2,136.7 0,32.8 5.9,58.8 15.4,90.2 1.8,5.8 7,9.7 13.1,9.7 1.3,0 2.7,-0.2 4,-0.6 3.5,-1.1 6.4,-3.4 8.1,-6.6 1.7,-3.2 2.1,-6.9 1,-10.4 -8.8,-29 -14.2,-52.8 -14.2,-82.3 z"
     id="path2"
     inkscape:connector-curvature="0" />
  <path
     d="m 495.36102,447.42712 c -27.3,-23.7 -60.7,-36.2 -96.7,-36.2 -48.3,0 -91.4,17.8 -121.5,50.1 -28.7,30.8 -42.8,71.7 -39.7,115.1 2.3,32.7 6,50.7 9.3,66.6 4.3,21.1 7.7,37.8 5.1,84.1 -0.4,6.7 3.7,12.7 10,14.6 1.2,0.4 2.3,0.5 3.6,0.5 7.2,0 13.2,-5.7 13.7,-12.9 2.9,-50.4 -0.8,-68.7 -5.5,-91.9 -3.1,-15.1 -6.6,-32.2 -8.8,-63.1 -2.6,-35.7 9,-69.3 32.4,-94.5 24.8,-26.7 60.9,-41.4 101.4,-41.4 29.3,0 56.5,10.2 78.7,29.5 22.3,19.3 39.2,47.4 49,81.1 11.4,39.3 14.5,89.3 9.1,144.5 -0.7,7.5 4.8,14.2 12.3,15 0.4,0 0.9,0.1 1.3,0.1 7.1,0 12.9,-5.3 13.6,-12.4 5.8,-58.7 2.3,-112.2 -10.1,-154.8 -11.1,-38.6 -30.9,-71.2 -57.2,-94 z"
     id="path4"
     inkscape:connector-curvature="0" />
  <path
     d="m 513.16102,585.12712 c -5.9,-37.5 -19.9,-68.8 -40.6,-90.6 -20.8,-22 -47.4,-33.7 -76.9,-33.7 -19,0 -37.7,4.1 -54.1,12 -3.7,1.8 -6.4,5.1 -7.4,9.1 -1,4.1 -0.1,8.3 2.5,11.6 2.6,3.4 6.5,5.3 10.8,5.3 2.1,0 4,-0.5 5.9,-1.3 12.6,-6 27.2,-9.2 42.2,-9.2 22.4,0 42.5,9.2 58.3,26.6 16.1,17.8 27.3,43.6 32.1,74.6 4.7,29.6 7,53.5 7.1,73.1 0.2,39.7 -4.8,72.7 -4.8,73.1 -0.6,3.6 0.3,7.2 2.5,10.2 2.2,3 5.3,4.9 8.9,5.5 0.7,0.1 1.4,0.2 2.1,0.2 6.8,0 12.5,-4.9 13.5,-11.6 0.2,-1.4 5.4,-35.2 5.2,-77.5 0,-21.3 -2.4,-46.5 -7.3,-77.4 z m -188.2,-64 c 4,-5.8 2.9,-13.6 -2.5,-18.2 -2.5,-2.1 -5.6,-3.2 -8.8,-3.2 -4.5,0 -8.7,2.2 -11.3,5.9 -14.7,21.5 -19.7,49.1 -14.4,79.8 8.9,51.3 16.9,111.1 9.4,165 -0.5,3.8 0.5,7.7 2.9,10.7 2.3,3 5.7,4.8 9.4,5.1 0.4,0 0.8,0.1 1.2,0.1 6.8,0 12.6,-5.1 13.5,-11.8 8.2,-57.7 -0.2,-120.2 -9.5,-173.8 -4.1,-23.8 -0.7,-43.9 10.1,-59.6 z m 132.2,184.5 h -0.5 c -7.6,0.3 -13.5,6.6 -13.2,14.2 0,0.2 0.6,17.9 -2.6,34.7 -1.3,6.9 2.6,13.7 9.1,15.8 1.4,0.4 2.8,0.7 4.3,0.7 6.6,0 12.2,-4.7 13.4,-11.1 3.8,-20.1 3.1,-40.2 3.1,-41.1 -0.2,-7.5 -6.2,-13.2 -13.6,-13.2 z"
     id="path6"
     inkscape:connector-curvature="0" />
  <path
     d="m 434.26102,523.52712 c -11.2,-10.5 -25.2,-16.1 -40.5,-16.1 -19.8,0 -36.7,7.3 -47.6,20.5 -8.3,10.1 -17,28.8 -10.9,60 12.3,62.5 15,121.6 8.1,175.6 -1,7.5 4.4,14.4 11.8,15.3 0.6,0.1 1.2,0.1 1.7,0.1 6.9,0 12.7,-5.1 13.6,-12 7.3,-57 4.5,-119 -8.3,-184.4 -3.2,-16.4 -1.4,-29.3 5.1,-37.3 5.6,-6.8 15,-10.5 26.4,-10.5 25,0 35.1,27.6 38.3,39.4 6.9,25.7 10.9,63 11.5,107.7 0.1,7.4 6.2,13.5 13.7,13.5 h 0.2 c 3.6,-0.1 7,-1.5 9.6,-4.1 2.5,-2.6 3.9,-6.1 3.9,-9.7 -0.7,-47 -5,-86.5 -12.5,-114.4 -4.9,-18.5 -13.1,-33.2 -24.1,-43.6 z"
     id="path8"
     inkscape:connector-curvature="0" />
  <path
     d="m 404.86102,563.52712 c -2.1,-5.1 -7.1,-8.5 -12.7,-8.5 -1.8,0 -3.6,0.4 -5.2,1 -7,2.9 -10.3,10.9 -7.4,17.9 6.6,16 11.8,46.2 14.1,82.8 2.4,36.9 1.7,76.9 -2,109.6 -0.4,3.6 0.6,7.2 2.9,10.1 2.3,2.9 5.5,4.6 9.2,5 0.5,0.1 1,0.1 1.5,0.1 7,0 12.8,-5.2 13.6,-12.2 3.9,-35.5 4.6,-76.6 2,-115.8 -2.5,-39.3 -8.2,-71.3 -16,-90 z"
     id="path10"
     inkscape:connector-curvature="0" />
  <path
     style="fill:none;stroke:#000000;stroke-width:25.82500076;stroke-linecap:round;stroke-linejoin:miter;stroke-miterlimit:4;stroke-dasharray:none;stroke-opacity:1"
     d="m 16.398274,533.7509 c 0,0 360.293586,-437.67218 768.948596,14.50845"
     id="path1542"
     inkscape:connector-curvature="0"
     inkscape:export-xdpi="5.0008912"
     inkscape:export-ydpi="5.0008912" />
</svg>
